<svg width="645" height="645" viewBox="0 0 645 645" fill="none" xmlns="http://www.w3.org/2000/svg">
<path d="M105.777 530.143L126.792 472.681H138.612L159.627 530.143H148.463L143.866 516.845H121.456L116.777 530.143H105.777ZM124.329 508.636H140.993L132.62 484.748L124.329 508.636ZM179.274 530.143C175.006 530.143 171.585 529.103 169.013 527.024C166.441 524.944 165.155 521.25 165.155 515.942V498.211H158.178V489.427H165.155L166.386 478.509H175.662V489.427H186.662V498.211H175.662V516.024C175.662 517.994 176.073 519.362 176.894 520.128C177.769 520.84 179.247 521.195 181.326 521.195H186.416V530.143H179.274ZM212.537 531.128C208.596 531.128 205.039 530.225 201.865 528.419C198.746 526.613 196.256 524.123 194.395 520.949C192.589 517.72 191.686 513.999 191.686 509.785C191.686 505.571 192.617 501.877 194.477 498.703C196.338 495.474 198.828 492.957 201.947 491.151C205.121 489.345 208.679 488.442 212.619 488.442C216.504 488.442 220.007 489.345 223.126 491.151C226.3 492.957 228.79 495.474 230.596 498.703C232.457 501.877 233.387 505.571 233.387 509.785C233.387 513.999 232.457 517.72 230.596 520.949C228.79 524.123 226.3 526.613 223.126 528.419C219.952 530.225 216.422 531.128 212.537 531.128ZM212.537 522.016C215.273 522.016 217.654 521.004 219.678 518.979C221.703 516.899 222.716 513.835 222.716 509.785C222.716 505.735 221.703 502.698 219.678 500.673C217.654 498.594 215.3 497.554 212.619 497.554C209.828 497.554 207.42 498.594 205.395 500.673C203.425 502.698 202.44 505.735 202.44 509.785C202.44 513.835 203.425 516.899 205.395 518.979C207.42 521.004 209.8 522.016 212.537 522.016ZM241.14 530.143V489.427H250.416L251.319 494.927C252.632 492.957 254.356 491.397 256.491 490.248C258.68 489.044 261.197 488.442 264.043 488.442C270.336 488.442 274.796 490.877 277.423 495.748C278.901 493.504 280.871 491.726 283.334 490.412C285.851 489.099 288.587 488.442 291.542 488.442C296.851 488.442 300.928 490.029 303.774 493.203C306.619 496.377 308.042 501.029 308.042 507.158V530.143H297.535V508.143C297.535 504.641 296.851 501.959 295.483 500.099C294.169 498.238 292.117 497.308 289.326 497.308C286.48 497.308 284.182 498.347 282.431 500.427C280.734 502.507 279.886 505.407 279.886 509.128V530.143H269.378V508.143C269.378 504.641 268.694 501.959 267.326 500.099C265.958 498.238 263.851 497.308 261.005 497.308C258.214 497.308 255.943 498.347 254.192 500.427C252.496 502.507 251.647 505.407 251.647 509.128V530.143H241.14ZM322.04 483.106C320.125 483.106 318.538 482.532 317.279 481.383C316.075 480.233 315.473 478.783 315.473 477.032C315.473 475.281 316.075 473.858 317.279 472.763C318.538 471.614 320.125 471.039 322.04 471.039C323.956 471.039 325.515 471.614 326.719 472.763C327.978 473.858 328.607 475.281 328.607 477.032C328.607 478.783 327.978 480.233 326.719 481.383C325.515 482.532 323.956 483.106 322.04 483.106ZM316.786 530.143V489.427H327.294V530.143H316.786ZM356.567 531.128C352.408 531.128 348.741 530.225 345.567 528.419C342.393 526.613 339.875 524.096 338.015 520.867C336.209 517.638 335.306 513.944 335.306 509.785C335.306 505.626 336.209 501.932 338.015 498.703C339.875 495.474 342.393 492.957 345.567 491.151C348.741 489.345 352.408 488.442 356.567 488.442C361.766 488.442 366.144 489.81 369.701 492.547C373.258 495.228 375.529 498.949 376.514 503.711H365.432C364.885 501.74 363.79 500.208 362.149 499.114C360.562 497.964 358.674 497.39 356.485 497.39C353.584 497.39 351.121 498.484 349.097 500.673C347.072 502.862 346.059 505.9 346.059 509.785C346.059 513.671 347.072 516.708 349.097 518.897C351.121 521.086 353.584 522.18 356.485 522.18C358.674 522.18 360.562 521.633 362.149 520.539C363.79 519.444 364.885 517.885 365.432 515.86H376.514C375.529 520.457 373.258 524.151 369.701 526.942C366.144 529.733 361.766 531.128 356.567 531.128ZM386.086 530.143V498.211H380.504V489.427H386.086V484.666C386.086 479.741 387.318 476.238 389.78 474.159C392.298 472.079 395.691 471.039 399.959 471.039H404.474V479.987H401.601C399.795 479.987 398.509 480.343 397.743 481.054C396.977 481.766 396.594 482.97 396.594 484.666V489.427H405.377V498.211H396.594V530.143H386.086ZM413.668 530.143V471.039H424.175V530.143H413.668ZM452.838 531.128C448.898 531.128 445.34 530.225 442.166 528.419C439.047 526.613 436.557 524.123 434.696 520.949C432.89 517.72 431.987 513.999 431.987 509.785C431.987 505.571 432.918 501.877 434.778 498.703C436.639 495.474 439.129 492.957 442.248 491.151C445.423 489.345 448.98 488.442 452.92 488.442C456.805 488.442 460.308 489.345 463.427 491.151C466.601 492.957 469.091 495.474 470.897 498.703C472.758 501.877 473.688 505.571 473.688 509.785C473.688 513.999 472.758 517.72 470.897 520.949C469.091 524.123 466.601 526.613 463.427 528.419C460.253 530.225 456.723 531.128 452.838 531.128ZM452.838 522.016C455.574 522.016 457.955 521.004 459.98 518.979C462.004 516.899 463.017 513.835 463.017 509.785C463.017 505.735 462.004 502.698 459.98 500.673C457.955 498.594 455.601 497.554 452.92 497.554C450.129 497.554 447.721 498.594 445.696 500.673C443.726 502.698 442.741 505.735 442.741 509.785C442.741 513.835 443.726 516.899 445.696 518.979C447.721 521.004 450.102 522.016 452.838 522.016ZM487.961 530.143L476.058 489.427H486.483L493.543 518.733L501.752 489.427H513.408L521.617 518.733L528.759 489.427H539.184L527.199 530.143H516.281L507.58 499.688L498.879 530.143H487.961Z" fill="white"/>
<path fill-rule="evenodd" clip-rule="evenodd" d="M346.283 419.222C322.106 425.252 295.652 422.276 272.369 408.833C224.718 381.322 208.391 320.39 235.903 272.739C244.706 257.492 256.93 245.452 271.046 237.029L421.817 324.077C421.71 331.553 420.759 339.064 418.925 346.466L304.553 280.433C300.36 278.012 294.999 279.449 292.578 283.642C290.157 287.834 291.594 293.196 295.787 295.616L413.088 363.34C411.713 366.393 410.173 369.405 408.463 372.367C406.09 376.478 403.467 380.356 400.626 383.993L257.486 301.352C253.293 298.931 247.932 300.367 245.511 304.56C243.091 308.753 244.527 314.114 248.72 316.535L388.296 397.119C381.953 402.745 374.973 407.477 367.559 411.261L305.107 375.205C300.914 372.784 295.553 374.22 293.132 378.413C290.712 382.606 292.148 387.967 296.341 390.388L346.283 419.222ZM371.997 236.273C346.282 221.426 316.698 219.346 290.587 228.067L419.808 302.672C414.305 275.699 397.713 251.119 371.997 236.273ZM284.763 373.078C282.394 377.182 277.146 378.588 273.042 376.219C268.938 373.85 267.532 368.602 269.901 364.498C272.271 360.394 277.518 358.988 281.622 361.357C285.726 363.727 287.132 368.974 284.763 373.078ZM273.17 284.239C277.274 286.608 282.522 285.202 284.892 281.098C287.261 276.994 285.855 271.747 281.751 269.377C277.647 267.008 272.399 268.414 270.03 272.518C267.66 276.622 269.067 281.87 273.17 284.239Z" fill="white"/>
</svg>
