<svg width="3835" height="960" viewBox="0 0 3835 960" fill="none" xmlns="http://www.w3.org/2000/svg">
<g clip-path="url(#clip0_313_369)">
<path d="M1251.56 620.053L1349.66 351.8H1404.84L1502.95 620.053H1450.83L1429.37 557.972H1324.75L1302.91 620.053H1251.56ZM1338.16 519.65H1415.96L1376.87 408.133L1338.16 519.65ZM1594.67 620.053C1574.74 620.053 1558.77 615.199 1546.77 605.491C1534.76 595.783 1528.75 578.538 1528.75 553.756V470.981H1496.18V429.977H1528.75L1534.5 379.008H1577.81V429.977H1629.16V470.981H1577.81V554.139C1577.81 563.337 1579.72 569.724 1583.55 573.3C1587.64 576.622 1594.54 578.282 1604.25 578.282H1628.01V620.053H1594.67ZM1749.95 624.652C1731.55 624.652 1714.95 620.436 1700.13 612.006C1685.57 603.575 1673.94 591.95 1665.26 577.133C1656.83 562.059 1652.61 544.687 1652.61 525.015C1652.61 505.343 1656.95 488.098 1665.64 473.28C1674.33 458.207 1685.95 446.455 1700.51 438.024C1715.33 429.593 1731.94 425.378 1750.33 425.378C1768.47 425.378 1784.82 429.593 1799.38 438.024C1814.2 446.455 1825.83 458.207 1834.26 473.28C1842.94 488.098 1847.29 505.343 1847.29 525.015C1847.29 544.687 1842.94 562.059 1834.26 577.133C1825.83 591.95 1814.2 603.575 1799.38 612.006C1784.57 620.436 1768.09 624.652 1749.95 624.652ZM1749.95 582.114C1762.72 582.114 1773.84 577.388 1783.29 567.935C1792.74 558.227 1797.47 543.92 1797.47 525.015C1797.47 506.109 1792.74 491.93 1783.29 482.478C1773.84 472.769 1762.85 467.915 1750.33 467.915C1737.3 467.915 1726.06 472.769 1716.61 482.478C1707.41 491.93 1702.81 506.109 1702.81 525.015C1702.81 543.92 1707.41 558.227 1716.61 567.935C1726.06 577.388 1737.18 582.114 1749.95 582.114ZM1883.48 620.053V429.977H1926.78L1931 455.652C1937.13 446.455 1945.18 439.174 1955.14 433.809C1965.36 428.188 1977.11 425.378 1990.4 425.378C2019.78 425.378 2040.6 436.747 2052.86 459.484C2059.76 449.01 2068.96 440.707 2080.45 434.575C2092.21 428.444 2104.98 425.378 2118.78 425.378C2143.56 425.378 2162.59 432.787 2175.88 447.605C2189.16 462.422 2195.8 484.138 2195.8 512.752V620.053H2146.75V517.35C2146.75 501 2143.56 488.481 2137.17 479.795C2131.04 471.109 2121.46 466.766 2108.43 466.766C2095.14 466.766 2084.41 471.62 2076.24 481.328C2068.32 491.036 2064.36 504.576 2064.36 521.949V620.053H2015.31V517.35C2015.31 501 2012.11 488.481 2005.73 479.795C1999.34 471.109 1989.5 466.766 1976.22 466.766C1963.19 466.766 1952.59 471.62 1944.41 481.328C1936.49 491.036 1932.53 504.576 1932.53 521.949V620.053H1883.48ZM2261.15 400.469C2252.21 400.469 2244.8 397.786 2238.92 392.421C2233.3 387.056 2230.49 380.286 2230.49 372.111C2230.49 363.935 2233.3 357.293 2238.92 352.183C2244.8 346.818 2252.21 344.136 2261.15 344.136C2270.09 344.136 2277.37 346.818 2282.99 352.183C2288.87 357.293 2291.81 363.935 2291.81 372.111C2291.81 380.286 2288.87 387.056 2282.99 392.421C2277.37 397.786 2270.09 400.469 2261.15 400.469ZM2236.63 620.053V429.977H2285.68V620.053H2236.63ZM2422.33 624.652C2402.92 624.652 2385.8 620.436 2370.98 612.006C2356.16 603.575 2344.41 591.823 2335.73 576.749C2327.3 561.676 2323.08 544.431 2323.08 525.015C2323.08 505.598 2327.3 488.354 2335.73 473.28C2344.41 458.207 2356.16 446.455 2370.98 438.024C2385.8 429.593 2402.92 425.378 2422.33 425.378C2446.6 425.378 2467.04 431.765 2483.65 444.539C2500.25 457.057 2510.86 474.43 2515.46 496.657H2463.72C2461.17 487.459 2456.06 480.306 2448.39 475.196C2440.98 469.831 2432.17 467.149 2421.95 467.149C2408.41 467.149 2396.91 472.258 2387.46 482.478C2378.01 492.697 2373.28 506.876 2373.28 525.015C2373.28 543.154 2378.01 557.333 2387.46 567.552C2396.91 577.771 2408.41 582.881 2421.95 582.881C2432.17 582.881 2440.98 580.326 2448.39 575.216C2456.06 570.107 2461.17 562.826 2463.72 553.373H2515.46C2510.86 574.833 2500.25 592.078 2483.65 605.108C2467.04 618.137 2446.6 624.652 2422.33 624.652ZM2560.14 620.053V470.981H2534.08V429.977H2560.14V407.75C2560.14 384.757 2565.89 368.406 2577.39 358.698C2589.14 348.99 2604.98 344.136 2624.91 344.136H2645.98V385.906H2632.57C2624.14 385.906 2618.14 387.567 2614.56 390.888C2610.98 394.209 2609.19 399.83 2609.19 407.75V429.977H2650.2V470.981H2609.19V620.053H2560.14ZM2688.9 620.053V344.136H2737.96V620.053H2688.9ZM2871.76 624.652C2853.37 624.652 2836.76 620.436 2821.94 612.006C2807.38 603.575 2795.76 591.95 2787.07 577.133C2778.64 562.059 2774.43 544.687 2774.43 525.015C2774.43 505.343 2778.77 488.098 2787.45 473.28C2796.14 458.207 2807.77 446.455 2822.33 438.024C2837.15 429.593 2853.75 425.378 2872.15 425.378C2890.28 425.378 2906.64 429.593 2921.2 438.024C2936.02 446.455 2947.64 458.207 2956.07 473.28C2964.76 488.098 2969.1 505.343 2969.1 525.015C2969.1 544.687 2964.76 562.059 2956.07 577.133C2947.64 591.95 2936.02 603.575 2921.2 612.006C2906.38 620.436 2889.9 624.652 2871.76 624.652ZM2871.76 582.114C2884.54 582.114 2895.65 577.388 2905.1 567.935C2914.56 558.227 2919.28 543.92 2919.28 525.015C2919.28 506.109 2914.56 491.93 2905.1 482.478C2895.65 472.769 2884.66 467.915 2872.15 467.915C2859.12 467.915 2847.88 472.769 2838.42 482.478C2829.23 491.93 2824.63 506.109 2824.63 525.015C2824.63 543.92 2829.23 558.227 2838.42 567.935C2847.88 577.388 2858.99 582.114 2871.76 582.114ZM3035.73 620.053L2980.16 429.977H3028.83L3061.79 566.786L3100.11 429.977H3154.53L3192.85 566.786L3226.19 429.977H3274.86L3218.91 620.053H3167.94L3127.32 477.879L3086.7 620.053H3035.73Z" fill="black"/>
<path fill-rule="evenodd" clip-rule="evenodd" d="M817.998 755.687C749.049 772.884 673.606 764.396 607.206 726.059C471.311 647.6 424.75 473.832 503.209 337.937C528.313 294.455 563.176 260.119 603.433 236.098L1033.41 484.346C1033.1 505.666 1030.39 527.086 1025.16 548.196L698.989 359.879C687.031 352.975 671.741 357.072 664.838 369.03C657.934 380.987 662.031 396.277 673.989 403.18L1008.52 596.319C1004.6 605.025 1000.2 613.617 995.328 622.062C988.558 633.787 981.079 644.847 972.976 655.219L564.761 419.536C552.804 412.633 537.514 416.729 530.611 428.687C523.707 440.644 527.804 455.934 539.761 462.837L937.814 692.653C919.724 708.697 899.819 722.191 878.673 732.983L700.569 630.155C688.612 623.251 673.322 627.348 666.419 639.305C659.515 651.263 663.612 666.552 675.569 673.456L817.998 755.687ZM891.331 233.941C817.994 191.599 733.627 185.668 659.162 210.538L1027.68 423.303C1011.99 346.38 964.667 276.282 891.331 233.941ZM642.551 624.091C635.794 635.795 620.828 639.805 609.124 633.048C597.421 626.29 593.411 611.325 600.168 599.621C606.925 587.917 621.891 583.907 633.595 590.664C645.298 597.421 649.308 612.387 642.551 624.091ZM609.491 370.734C621.195 377.491 636.16 373.481 642.917 361.777C649.675 350.073 645.665 335.107 633.961 328.35C622.257 321.593 607.291 325.603 600.534 337.307C593.777 349.011 597.787 363.976 609.491 370.734Z" fill="#0082FE"/>
</g>
<defs>
<clipPath id="clip0_313_369">
<rect width="3835" height="960" fill="white"/>
</clipPath>
</defs>
</svg>
